<?xml version="1.0" standalone="no"?>
<!DOCTYPE svg PUBLIC "-//W3C//DTD SVG 20010904//EN"
 "http://www.w3.org/TR/2001/REC-SVG-20010904/DTD/svg10.dtd">
<svg version="1.0" xmlns="http://www.w3.org/2000/svg"
 width="197.000000pt" height="136.000000pt" viewBox="0 0 197.000000 136.000000"
 preserveAspectRatio="xMidYMid meet">
<metadata>
Created by potrace 1.10, written by Peter Selinger 2001-2011
</metadata>
<g transform="translate(0.000000,136.000000) scale(0.100000,-0.100000)"
fill="#000000" stroke="none">
<path d="M552 1291 c-30 -4 -57 -13 -63 -21 -8 -14 -4 -93 7 -133 3 -10 18
-20 33 -23 20 -4 31 -15 39 -38 16 -45 75 -111 112 -126 28 -12 30 -16 30 -69
2 -238 144 -396 289 -322 62 32 131 143 131 212 l0 30 33 -18 c17 -10 34 -19
36 -20 2 -1 -1 -22 -8 -47 -6 -24 -8 -51 -5 -59 3 -9 35 -23 71 -33 l66 -18
18 22 c9 12 22 45 28 74 13 58 9 67 -41 84 -23 7 -34 19 -40 41 -10 38 -79
110 -124 129 -25 11 -34 20 -34 38 0 38 -68 164 -103 190 -64 47 -112 51 -179
15 -49 -26 -110 -120 -88 -134 5 -3 7 -12 3 -20 -3 -9 0 -21 6 -28 7 -10 7
-24 -1 -50 l-11 -37 -24 32 c-12 18 -23 27 -23 20 0 -7 -9 -4 -22 8 -13 10
-32 26 -43 35 -11 9 -13 13 -5 9 8 -4 5 4 -7 18 -20 21 -35 63 -17 45 4 -3 15
-2 26 4 15 8 25 3 56 -29 l38 -39 -2 29 c-1 19 -15 44 -38 67 -31 31 -36 44
-36 82 0 46 -22 90 -43 88 -7 -1 -36 -5 -65 -8z m56 -28 c-4 -24 -63 -40 -83
-23 -24 20 -18 28 23 33 20 2 43 4 50 5 8 1 12 -5 10 -15z m37 -110 c-5 -14
-113 -29 -125 -17 -5 5 -11 32 -15 59 -6 45 -5 48 9 32 23 -29 93 -15 108 21
11 26 12 24 19 -28 5 -30 6 -60 4 -67z m313 18 c19 -11 15 -24 -11 -37 -27
-15 -72 13 -55 34 12 14 47 16 66 3z m-49 -92 c33 -95 -28 -181 -85 -118 -14
15 -19 35 -18 72 0 42 5 54 28 74 33 28 58 19 75 -28z m131 11 c15 -28 12
-103 -6 -128 -8 -12 -26 -22 -39 -22 -34 0 -55 36 -55 93 0 38 5 53 25 73 20
20 29 23 45 14 11 -6 24 -19 30 -30z m102 -170 c6 0 5 -7 -3 -17 -13 -16 -12
-17 3 -4 15 11 22 11 43 -3 31 -21 51 -64 35 -80 -13 -13 -101 30 -99 48 1 6
-3 24 -9 39 -16 39 -15 51 4 33 8 -9 20 -16 26 -16z m-182 12 c0 -5 -7 -17
-15 -28 -15 -19 -15 -19 -30 0 -22 29 -19 36 15 36 17 0 30 -4 30 -8z m110
-42 c36 -71 42 -123 21 -180 -73 -193 -240 -203 -322 -20 -25 55 -20 110 17
188 26 52 26 53 62 46 20 -4 45 -18 55 -31 24 -30 40 -29 57 2 8 15 22 25 36
25 13 0 26 5 29 10 9 15 23 3 45 -40z m228 -112 c48 -14 51 -20 20 -40 -31
-20 -57 -9 -74 31 -10 24 -11 31 -1 27 6 -3 31 -11 55 -18z m-19 -66 c24 -2
40 3 57 19 13 12 24 19 24 15 0 -24 -33 -116 -41 -116 -18 0 -104 23 -112 29
-4 4 -2 34 5 66 l12 59 11 -35 c10 -28 17 -35 44 -37z"/>
<path d="M835 1039 c-4 -5 -4 -21 -1 -35 7 -28 50 -34 60 -8 11 28 7 46 -9 41
-8 -4 -17 -2 -20 3 -8 13 -22 13 -30 -1z"/>
<path d="M971 1047 c-24 -24 -5 -67 31 -67 9 0 21 8 26 18 10 19 5 45 -8 37
-5 -3 -15 1 -23 9 -11 11 -17 12 -26 3z"/>
<path d="M595 693 c-74 -15 -68 -7 -63 -84 7 -95 14 -100 110 -85 l47 7 -33
-33 c-35 -35 -58 -94 -49 -127 17 -67 147 -31 213 60 32 45 41 104 18 127 -16
16 -73 15 -106 -2 l-27 -14 -2 65 c-1 35 -7 71 -14 79 -11 13 -51 17 -94 7z
m69 -35 c-13 -44 -41 -49 -87 -16 l-31 22 24 7 c14 4 42 7 63 8 35 1 38 -1 31
-21z m21 -106 c-9 -9 -109 -20 -117 -13 -9 7 -28 101 -21 101 2 0 17 -9 32
-21 36 -26 85 -19 97 14 6 17 8 11 11 -27 2 -26 2 -51 -2 -54z m150 -21 c11
-36 -26 -97 -88 -142 -62 -45 -78 -36 -27 16 24 24 40 48 36 52 -4 4 -29 -17
-56 -46 -36 -39 -54 -52 -66 -47 -15 6 -8 16 36 61 30 30 51 58 47 62 -5 4
-25 -13 -47 -37 -22 -24 -42 -42 -45 -38 -9 9 57 90 94 115 43 29 107 31 116
4z"/>
<path d="M1386 601 c-27 -4 -54 -14 -60 -23 -16 -22 -5 -136 14 -149 19 -12
131 0 148 16 10 9 11 28 6 74 -7 61 -23 92 -47 90 -7 -1 -34 -5 -61 -8z m63
-35 c-14 -31 -50 -38 -77 -15 -29 23 -28 27 11 32 77 9 78 9 66 -17z m29 -85
c-3 -24 -8 -27 -61 -35 -34 -5 -62 -5 -67 0 -4 5 -11 34 -14 64 l-7 55 23 -23
c35 -32 85 -30 100 4 l12 27 9 -33 c4 -18 7 -44 5 -59z"/>
<path d="M1003 550 c-30 -12 -45 -43 -34 -72 21 -55 104 -100 186 -101 68 -1
95 15 95 56 0 80 -156 153 -247 117z m153 -34 c86 -40 75 -58 -14 -25 -29 11
-32 11 -32 1 0 -5 27 -17 60 -27 34 -10 63 -22 66 -27 13 -21 -11 -24 -73 -7
-36 10 -69 17 -71 14 -9 -9 2 -14 56 -28 49 -12 61 -27 22 -27 -70 0 -190 70
-190 111 0 44 95 53 176 15z"/>
<path d="M147 233 c-4 -3 -7 -53 -7 -110 l0 -103 53 0 c40 0 58 5 70 18 23 25
21 75 -3 97 -13 12 -18 25 -14 40 9 37 -72 85 -99 58z m68 -48 c0 -13 -8 -21
-22 -23 -19 -3 -23 1 -23 23 0 22 4 26 23 23 14 -2 22 -10 22 -23z m35 -74 c5
-11 10 -24 10 -30 0 -19 -32 -41 -60 -41 -26 0 -28 3 -32 45 l-3 45 37 0 c27
0 40 -6 48 -19z"/>
<path d="M724 227 c-2 -7 -3 -58 -2 -113 l3 -99 48 2 c30 1 56 8 68 19 26 23
25 76 -1 99 -12 10 -18 25 -16 32 8 21 -14 61 -38 67 -35 9 -56 7 -62 -7z m74
-40 c2 -11 -5 -20 -20 -26 -30 -11 -36 -7 -30 24 3 20 10 25 26 23 11 -2 22
-11 24 -21z m30 -69 c30 -30 0 -78 -49 -78 -28 0 -29 2 -29 45 0 44 1 45 33
45 18 0 38 -5 45 -12z"/>
<path d="M1456 233 c-3 -3 -6 -26 -6 -50 0 -39 -2 -42 -18 -32 -30 19 -71 3
-89 -36 -15 -31 -15 -36 1 -60 21 -32 54 -45 83 -34 13 5 25 4 28 -2 16 -25
25 12 25 106 0 95 -7 125 -24 108z m-18 -115 c17 -17 15 -53 -3 -68 -38 -31
-96 27 -65 65 15 18 51 20 68 3z"/>
<path d="M1525 228 c-10 -25 -1 -208 10 -208 13 0 19 200 6 213 -7 7 -12 5
-16 -5z"/>
<path d="M330 140 c-26 -26 -26 -81 -2 -103 29 -27 102 -20 102 9 0 17 -5 17
-29 2 -15 -9 -25 -9 -45 0 -43 19 -30 32 34 32 69 0 77 14 35 55 -29 30 -68
32 -95 5z m74 -16 c25 -10 8 -24 -30 -24 -32 0 -42 8 -27 23 8 9 36 9 57 1z"/>
<path d="M482 86 c4 -84 22 -91 26 -10 3 50 5 55 25 52 19 -3 23 -11 27 -58 6
-71 25 -66 24 7 -1 65 -17 83 -71 81 l-34 -1 3 -71z"/>
<path d="M912 140 c-40 -37 -23 -111 28 -121 30 -6 67 11 78 36 17 38 15 53
-13 80 -29 30 -64 32 -93 5z m76 -22 c17 -17 15 -53 -3 -68 -38 -31 -96 27
-65 65 15 18 51 20 68 3z"/>
<path d="M1075 138 c-40 -32 -33 -88 16 -114 21 -11 34 -12 48 -4 11 5 27 7
35 4 14 -5 16 4 16 62 l0 69 -45 2 c-31 1 -52 -4 -70 -19z m85 -23 c31 -38
-27 -96 -65 -65 -18 15 -20 51 -3 68 17 17 53 15 68 -3z"/>
<path d="M1240 89 c0 -81 18 -94 22 -16 3 50 4 52 31 49 15 -1 27 1 27 6 0 16
-24 30 -52 30 -28 0 -28 -1 -28 -69z"/>
<path d="M1605 135 c-14 -13 -25 -31 -25 -40 0 -20 19 -57 34 -67 18 -13 73
-9 85 5 16 20 4 26 -29 14 -22 -8 -32 -8 -44 2 -28 23 -18 31 37 31 30 0 56 3
60 6 3 4 0 19 -8 34 -24 47 -72 54 -110 15z m83 -22 c2 -9 -9 -13 -37 -13 -39
0 -55 13 -28 24 21 8 60 2 65 -11z"/>
<path d="M1740 151 c0 -6 9 -34 21 -63 11 -28 18 -60 16 -70 -3 -10 0 -18 8
-18 7 0 26 34 44 75 36 86 36 85 17 85 -8 0 -20 -20 -27 -45 -7 -25 -17 -45
-20 -45 -4 0 -14 19 -21 42 -13 38 -38 64 -38 39z"/>
</g>
</svg>
